<svg xmlns="http://www.w3.org/2000/svg" width="1241.333" height="1250.667" version="1.0" viewBox="0 0 931 938">
  <g fill="#2e6b50">
    <path d="M361 1.6c-23.9 1.2-46.7 2.7-60.2 4C168 18 94.5 55.9 52.2 133.8 28 178.3 13 239.3 6 321.5c-3.1 35.8-4.1 64.1-4.7 127C.6 530.2 2.2 582.3 7 631c14.2 143.8 55.5 222.2 138.5 263 53.4 26.2 118 38.5 219.5 42 38.4 1.3 202.9.6 226-.9 92.5-6.1 145.2-17.3 195-41.4 6.9-3.3 28.3-16.6 35.4-22 9.5-7.2 29.9-27.4 37.2-36.7 25.1-32.3 43.7-77.9 54.8-134.5 11.8-60.3 16.6-128.2 16.6-235 0-136-9-219.4-30.6-284C862.6 71.3 787.5 21.2 636.5 6c-40.2-4-48.8-4.2-160-4.5-59.9-.1-111.9 0-115.5.1zm217 13.8c47.4 2.8 63.8 4.2 88.5 7.7 45 6.3 83 17.2 113.5 32.5 5.7 2.8 24 14.2 31 19.2 9.1 6.5 32.3 30 39.5 40 40.6 56.3 59.4 136.2 64.5 274.7 1.3 35.1 1.3 122.6 0 158.1-5.8 157.8-30.3 244.5-84.2 297.7-49 48.2-125 70.9-256.8 76.7-29.9 1.3-188.8 1.3-220.5 0-127.2-5.2-201.3-27-250.6-73.7C54 801.8 29.2 731.4 19.1 610c-6.9-81.8-6.2-220 1.5-298.5 7-72.1 20-124.9 40.9-166.6 4.3-8.5 13.1-22.9 17.2-28 1.5-2 3.9-5.1 5.3-7 13.1-17.6 34-35.2 57.6-48.7 50-28.5 125.3-43.5 230.9-46 35.2-.9 190.1-.7 205.5.2z"/>
    <path d="M578 238c-56.6 4.7-86.7 18.9-104.9 49.7C458.5 312.4 452 351 452 412c.1 130.3 25.9 172.4 110.9 181 13.2 1.3 52 1.3 67.6 0 6.6-.6 18-2 25.3-3 7.4-1.1 14-2 14.8-2 1.7 0 1.9 6.9.4 18.8-2.1 16.8-8.3 26.3-20.7 32-13.4 6.1-16.8 6.4-89.8 6.8-36.3.3-66.9.6-68.1.9-3.9.9-4.4 4.2-4.4 32.1 0 34.4-1 32.1 16 34.8 52.5 8.3 123.4 10 164.5 4 18.8-2.7 39.7-8.9 48.8-14.5 1.8-1 3.9-2.2 4.7-2.6.8-.3 4.2-2.8 7.5-5.4 20.2-15.8 30.1-38.9 33.5-77.4 1.5-18 2.6-352.7 1.1-358.2-.7-2.5-2.5-5.3-4.5-7.1-3-2.6-4.8-3.1-20.2-5.5-23.9-3.7-30-4.5-55.9-6.8-25.8-2.3-87.5-3.4-105.5-1.9zm94 171.5c0 100.5.2 96.1-5.5 99.9-4.2 2.7-17.5 3.9-45.5 4-30.3.1-38.4-1-50.7-7-14.2-6.9-20.6-18.2-24.5-43.4-.9-6-1.3-20.5-1.3-49.5 0-35.5.3-42.3 1.9-51 3.8-20.9 9.9-31.1 22.8-38.3 10.4-5.9 20.5-7 65.1-7.1l37.7-.1v92.5zM300 252.1c-83.1 3.3-116.6 25.5-130.9 86.9-4.5 19-6.9 47.1-7.4 85.5-1 77.2 5.4 119.2 22.5 148.3 4.9 8.3 18.9 22.1 27.4 26.9 22.7 12.9 49.3 18.3 97.9 19.8 45.3 1.5 115.4-4.8 125.1-11.1 5-3.3 5.4-6 5.4-35.5 0-22.6-.3-27.6-1.6-30.4-.8-1.8-2.3-3.7-3.2-4.2-.9-.4-31.6-1-68.2-1.3-73.1-.7-71.2-.5-84.7-7.1-13.6-6.6-20.7-20.2-24.4-46.9-1.9-13.1-1.9-79.6-.1-93.9 2.8-21.4 7.1-33.2 15.4-41.4 6.5-6.4 13.8-10 24.8-12.3 7.4-1.5 16.6-1.8 72.3-2.2l63.8-.4 2.7-2.3 2.7-2.3.3-28.9c.4-31.7-.1-35.4-4.6-37.7-3.4-1.8-31-6.1-48.2-7.6-13-1.1-57.6-3.1-64.5-2.8-2.2.1-12.3.4-22.5.9z"/>
  </g>
</svg>
