<?xml version="1.0" encoding="UTF-8"?>
<svg xmlns="http://www.w3.org/2000/svg" xmlns:xlink="http://www.w3.org/1999/xlink" width="960px" height="960px" viewBox="0 0 960 960" version="1.1">
<g id="surface1">
<path style=" stroke:none;fill-rule:nonzero;fill:rgb(18.039216%,41.960785%,31.37255%);fill-opacity:1;" d="M 1552.585938 343.613281 C 1559.570312 344.972656 1563.410156 348.148438 1563.410156 356.574219 L 1563.359375 407.75 C 1563.359375 414.804688 1559.503906 418.230469 1552.519531 418.230469 L 1447.746094 418.261719 C 1388.589844 418.261719 1379.535156 438.289062 1379.453125 519.972656 C 1379.386719 601.65625 1388.390625 621.667969 1447.5625 621.648438 L 1552.335938 621.617188 C 1559.320312 621.617188 1563.160156 624.8125 1563.160156 631.398438 L 1563.113281 683.273438 C 1563.113281 691.019531 1559.253906 694.195312 1552.269531 695.570312 C 1517.480469 703.316406 1471.414062 704.671875 1447.496094 704.691406 C 1310.664062 704.738281 1284.265625 667.878906 1284.398438 520.21875 C 1284.53125 372.578125 1310.980469 335.703125 1447.8125 335.667969 C 1471.53125 335.667969 1517.828125 337.007812 1552.585938 344.0625 L 1552.585938 343.597656 Z M 1686.636719 199.796875 C 1692.960938 199.796875 1696.335938 203.667969 1696.335938 210.273438 L 1696.21875 338.367188 C 1719.9375 335.851562 1746.355469 335.15625 1764.414062 335.15625 C 1887.027344 335.121094 1919.304688 358.328125 1919.1875 490.511719 L 1919.007812 690.503906 C 1919.007812 697.554688 1915.84375 700.964844 1909.292969 700.964844 L 1832.738281 701 C 1826.417969 701 1823.71875 697.804688 1823.71875 690.519531 L 1823.867188 515.105469 C 1823.949219 422.515625 1813.574219 417.949219 1754.632812 417.980469 L 1696.832031 417.980469 L 1696.585938 690.570312 C 1696.585938 697.621094 1693.421875 701.03125 1686.867188 701.03125 L 1609.871094 701.046875 C 1603.546875 701.046875 1600.832031 697.871094 1600.851562 690.585938 L 1601.28125 210.289062 C 1601.28125 203.917969 1604.441406 199.828125 1610.996094 199.828125 L 1686.867188 199.796875 Z M 2259.328125 446.417969 L 2259.128906 670.277344 C 2259.113281 680.757812 2256.628906 686.433594 2244.878906 690.304688 C 2199.9375 700.785156 2143.496094 703.996094 2099.007812 703.996094 C 2002.609375 704.027344 1952.027344 693.566406 1950.769531 592.105469 C 1952.210938 504.746094 1997.148438 485.84375 2082.503906 485.84375 L 2164.003906 485.808594 L 2164.023438 462.605469 C 2164.054688 431.4375 2144.871094 418.015625 2103.789062 418.03125 L 1987.496094 418.0625 C 1980.511719 418.0625 1978.476562 416.011719 1978.476562 408.28125 L 1978.527344 355.265625 C 1978.542969 347.535156 1981.027344 346.164062 1987.5625 344.804688 C 2026.859375 337.058594 2064.117188 334.992188 2103.855469 334.992188 C 2230.972656 334.941406 2259.160156 376.351562 2259.09375 446.183594 Z M 2090.351562 548.160156 C 2056.933594 548.160156 2045.414062 559.085938 2045.378906 587.074219 C 2045.347656 618.238281 2059.5625 626.664062 2099.984375 626.648438 C 2112.859375 626.648438 2145.601562 625.273438 2164.121094 620.257812 L 2164.171875 548.375 L 2090.351562 548.375 Z M 2416.054688 238.015625 C 2422.378906 235.945312 2426.449219 240.496094 2426.433594 247.78125 L 2426.351562 340.386719 L 2485.523438 340.386719 C 2492.523438 340.386719 2496.363281 343.5625 2496.363281 350.152344 L 2496.316406 402.042969 C 2496.296875 408.398438 2492.457031 411.808594 2485.457031 411.808594 L 2426.300781 411.839844 L 2426.136719 588.628906 C 2426.117188 616.386719 2435.816406 621.617188 2464.054688 621.617188 L 2490.472656 621.617188 C 2498.152344 621.617188 2501.3125 624.097656 2501.296875 631.382812 L 2501.261719 686.449219 C 2501.246094 694.195312 2498.085938 697.375 2490.851562 698.746094 C 2468.277344 703.300781 2450.433594 704.671875 2436.199219 704.671875 C 2380.867188 704.671875 2330.730469 702.652344 2330.796875 621.203125 L 2330.996094 412.089844 L 2293.042969 412.089844 C 2286.042969 412.089844 2282.664062 408.910156 2282.664062 402.324219 L 2282.714844 350.433594 C 2282.714844 344.0625 2285.875 340.667969 2293.109375 340.652344 L 2331.046875 340.652344 L 2331.113281 268.734375 C 2331.128906 262.363281 2333.609375 259.628906 2340.164062 258.273438 L 2416.054688 238.230469 L 2416.054688 237.996094 Z M 2828.125 347.453125 C 2836.484375 348.828125 2841.683594 354.503906 2841.667969 363.609375 L 2841.367188 693.054688 C 2840.605469 790.210938 2822.050781 834.820312 2683.863281 834.851562 C 2644.566406 834.851562 2602.34375 832.371094 2565.085938 825.78125 C 2559.226562 825.101562 2556.066406 822.605469 2556.066406 815.320312 L 2556.117188 766.164062 C 2556.117188 759.113281 2558.613281 756.398438 2565.152344 756.398438 L 2675.570312 756.363281 C 2732.027344 756.332031 2745.582031 743.371094 2745.617188 700.585938 L 2745.632812 696.726562 C 2718.074219 701.957031 2694.140625 703.796875 2667.261719 703.796875 C 2550.304688 703.828125 2518.941406 663.113281 2519.074219 514.078125 C 2519.207031 373.027344 2551.300781 334.792969 2686.792969 334.757812 C 2736.925781 334.742188 2789.527344 339.957031 2828.125 347.007812 Z M 2682.207031 418.03125 C 2619.875 418.046875 2613.980469 442.625 2613.914062 519.0625 C 2613.847656 602.566406 2623.53125 620.773438 2688.347656 620.757812 C 2704.371094 620.757812 2727.625 620.0625 2745.46875 616.867188 L 2745.648438 418.246094 L 2681.976562 418.246094 Z M 3201.601562 338.367188 C 3207.921875 338.367188 3210.636719 341.542969 3210.636719 348.132812 L 3210.324219 682.113281 C 3210.324219 690.539062 3207.839844 691.894531 3201.285156 693.039062 C 3157.703125 701.480469 3095.386719 703.996094 3047.074219 703.996094 C 2923.796875 704.042969 2892.199219 680.839844 2892.316406 547.976562 L 2892.496094 348 C 2892.511719 341.628906 2896.351562 338.21875 2902.890625 338.21875 L 2978.765625 338.203125 C 2985.085938 338.203125 2987.785156 341.378906 2987.785156 347.96875 L 2987.621094 523.382812 C 2987.535156 616.652344 2997.929688 621.203125 3056.855469 621.203125 L 3114.652344 621.167969 L 3114.902344 348.164062 C 3114.902344 341.792969 3118.0625 338.382812 3124.617188 338.382812 Z M 3464.953125 342.238281 C 3471.9375 344.292969 3475.332031 346.792969 3475.332031 355.214844 L 3475.28125 408.230469 C 3475.265625 414.585938 3471.425781 417.996094 3464.425781 417.996094 L 3404.144531 418.03125 C 3370.707031 418.03125 3359.1875 423.277344 3359.171875 451.035156 L 3358.957031 690.621094 C 3358.957031 697.671875 3355.78125 701.082031 3349.242188 701.082031 L 3272.691406 701.113281 C 3266.367188 701.113281 3262.972656 697.921875 3262.992188 690.636719 L 3263.222656 426.472656 C 3263.289062 345.039062 3321.101562 335.238281 3379.597656 335.222656 C 3398.117188 335.222656 3442.59375 337.242188 3464.953125 342.238281 Z M 3805.738281 338.382812 C 3812.0625 338.382812 3814.757812 341.5625 3814.757812 348.164062 L 3814.460938 682.144531 C 3814.445312 690.554688 3811.960938 691.910156 3805.421875 693.070312 C 3761.84375 701.496094 3699.507812 704.011719 3651.195312 704.027344 C 3527.917969 704.0625 3496.335938 680.855469 3496.453125 548.011719 L 3496.632812 348.03125 C 3496.632812 341.660156 3500.472656 338.25 3507.027344 338.234375 L 3582.886719 338.234375 C 3589.207031 338.21875 3591.921875 341.394531 3591.90625 348 L 3591.757812 523.398438 C 3591.675781 616.683594 3602.050781 621.21875 3660.976562 621.21875 L 3718.773438 621.203125 L 3719.023438 348.199219 C 3719.039062 341.828125 3722.203125 338.417969 3728.738281 338.398438 L 3805.738281 338.398438 Z M 514.558594 941.046875 C 498.074219 941.046875 481.375 941.046875 464.65625 940.386719 L 415.214844 941.082031 C 232.785156 941.132812 135.046875 913.636719 77.527344 846.539062 C 13.242188 771.492188 0.265625 642.96875 0.429688 472.816406 C 0.597656 302.664062 13.804688 173.460938 78.222656 98.582031 C 135.609375 31.695312 233.628906 4.371094 416.0625 4.304688 C 432.53125 4.304688 449.246094 4.304688 465.949219 4.964844 C 482.433594 4.519531 499.148438 4.285156 515.621094 4.269531 C 697.855469 4.203125 795.824219 31.695312 853.324219 98.8125 C 917.609375 173.859375 930.585938 302.382812 930.421875 472.550781 C 930.273438 642.703125 917.066406 771.921875 852.628906 846.785156 C 795.226562 913.671875 697.207031 941 514.792969 941.066406 L 514.558594 941.066406 Z M 464.671875 926.050781 C 481.605469 926.5 498.304688 926.714844 514.578125 926.714844 C 692.492188 926.664062 787.117188 900.925781 841.589844 837.433594 C 903.0625 765.996094 915.824219 639.972656 915.972656 472.535156 C 916.320312 99.226562 845.28125 18.488281 515.636719 18.585938 C 499.382812 18.585938 482.664062 18.605469 465.949219 19.300781 C 449.015625 18.835938 432.316406 18.621094 416.0625 18.636719 C 238.34375 18.671875 143.503906 44.625 89.046875 107.882812 C 27.558594 179.355469 14.796875 305.378906 14.648438 472.800781 C 14.316406 846.125 85.355469 926.863281 415 926.765625 L 464.671875 926.070312 Z M 464.671875 926.050781 "/>
<path style=" stroke:none;fill-rule:nonzero;fill:rgb(18.039216%,41.960785%,31.37255%);fill-opacity:1;" d="M 752.027344 252.183594 C 714.539062 245.378906 663.492188 240.398438 614.714844 240.414062 C 483.046875 240.464844 451.84375 277.554688 451.714844 414.503906 C 451.5625 558.96875 482.019531 598.542969 595.628906 598.492188 C 621.832031 598.492188 644.855469 596.671875 671.75 591.640625 L 671.75 595.28125 C 671.703125 636.695312 658.59375 649.207031 603.707031 649.226562 L 496.417969 649.257812 C 490.328125 649.257812 487.84375 651.773438 487.828125 658.59375 L 487.796875 706.363281 C 487.796875 713.195312 490.941406 715.695312 496.351562 716.375 C 532.484375 722.730469 573.816406 725.214844 611.769531 725.214844 C 745.921875 725.164062 764.042969 681.683594 764.804688 587.503906 L 765.101562 267.65625 C 765.101562 258.785156 760.15625 253.324219 752.027344 251.96875 Z M 671.835938 502.925781 C 671.839844 509.257812 667.046875 514.566406 660.746094 515.207031 C 645.617188 517.027344 628.683594 517.488281 616.253906 517.507812 C 553.242188 517.523438 544.003906 500.011719 544.089844 419.023438 C 544.15625 344.871094 549.816406 320.972656 610.34375 320.9375 L 672 320.921875 L 671.835938 503.15625 Z M 429.484375 262.859375 C 436.484375 264.230469 440.324219 267.410156 440.308594 275.816406 L 440.257812 327.011719 C 440.257812 334.0625 436.417969 337.472656 429.417969 337.472656 L 324.628906 337.523438 C 265.457031 337.539062 256.402344 357.550781 256.320312 439.234375 C 256.253906 520.898438 265.257812 540.910156 324.429688 540.894531 L 429.203125 540.84375 C 436.21875 540.84375 440.0625 544.023438 440.042969 550.625 L 439.996094 602.5 C 439.996094 610.230469 436.15625 613.421875 429.152344 614.78125 C 394.363281 622.527344 348.28125 623.917969 324.347656 623.917969 C 187.496094 623.96875 161.097656 587.121094 161.246094 439.480469 C 161.394531 291.839844 187.84375 254.996094 324.710938 254.929688 C 348.414062 254.929688 394.726562 256.285156 429.484375 263.320312 Z M 429.484375 262.859375 "/>
</g>
</svg>
